<svg xmlns="http://www.w3.org/2000/svg" viewBox="0 0 335.85798 63.20435"><path d="M99.3968,39.18281a6.43693,6.43693,0,0,1-8.21908,3.7775h0a6.31183,6.31183,0,0,1-3.8432-8.05657l.02-.05572L98.6591,4.17011a6.43957,6.43957,0,0,1,8.2137-3.785h0a6.31182,6.31182,0,0,1,3.84636,8.05505l-.01848.05155Z" style="fill:#c25700"/><path d="M12.42428,59.03092a6.43917,6.43917,0,0,1-8.21486,3.78791h0A6.3167,6.3167,0,0,1,.36419,54.75562l.01723-.048,12.92676-35.076a6.431,6.431,0,0,1,8.21316-3.78427h0A6.29835,6.29835,0,0,1,25.37852,23.876l-.02868.08Z" style="fill:#386097"/><path d="M32.33382,59.03092A6.436,6.436,0,0,1,24.12,62.81883h0a6.30969,6.30969,0,0,1-3.849-8.05045l.02181-.06076,12.92475-35.076a6.43229,6.43229,0,0,1,8.21215-3.78428h0a6.30273,6.30273,0,0,1,3.85967,8.03441l-.02661.07433Z" style="fill:#4c79af"/><path d="M52.23119,59.03092A6.43054,6.43054,0,0,1,44.022,62.81883h0a6.30365,6.30365,0,0,1-3.85188-8.03959l.02571-.07162,12.92659-35.076a6.42643,6.42643,0,0,1,8.20869-3.78428h0a6.29837,6.29837,0,0,1,3.857,8.0289l-.02862.07984Z" style="fill:#5c7d70"/><path d="M72.12718,59.03092a6.44137,6.44137,0,0,1-8.21661,3.78791h0a6.3007,6.3007,0,0,1-3.84828-8.03669l.02679-.07452,18.624-50.53751a6.43389,6.43389,0,0,1,8.20978-3.785h0A6.30984,6.30984,0,0,1,90.7767,8.43345l-.02086.05826Z" style="fill:#9d323d"/><path d="M332.38541,20.92272a3.47957,3.47957,0,1,1-3.48658,3.47255l0-.00912a3.452,3.452,0,0,1,3.44037-3.46358Q332.36235,20.92249,332.38541,20.92272Zm0,6.45275a2.97319,2.97319,0,1,0-2.85144-3.09014q-.00207.05039-.00235.1008a2.86481,2.86481,0,0,0,2.73758,2.98664Q332.32728,27.3753,332.38541,27.37547Zm-1.34464-5.00733h1.56708c.95975,0,1.41409.38265,1.41409,1.16486a1.04652,1.04652,0,0,1-.984,1.10545q-.0423.00245-.08468.00148l1.15908,1.79648h-.68151l-1.09415-1.75479h-.66757v1.75479h-.62827Zm.62827,1.80126h.65356c.55869,0,1.06641-.02666,1.06641-.663,0-.539-.4567-.6306-.88318-.6306H331.669Z" style="fill:#386097"/><path d="M132.44037,21.21365l9.8999,26.40037,9.94385-26.40039h5.72021v31.416h-3.96V26.49392H153.956l-9.812,26.13573H140.58l-9.812-26.13574h-.08789V52.62965h-3.96v-31.416Z" style="fill:#386097"/><path d="M172.8891,29.35327q8.49024,0,8.49219,6.11621V48.58177q0,1.27587,1.1875,1.27539a3.14711,3.14711,0,0,0,1.14355-.21973v2.9043a5.42489,5.42489,0,0,1-2.68359.61621q-3.16847,0-3.168-3.52051a9.97466,9.97466,0,0,1-8.00781,3.52051,8.43686,8.43686,0,0,1-5.52247-1.65039,5.77868,5.77868,0,0,1-2.002-4.7295,6.22949,6.22949,0,0,1,1.98-4.84082q1.97974-1.80321,9.1958-2.72753a7.62438,7.62438,0,0,0,3.32227-.94629,2.18273,2.18273,0,0,0,.8584-1.87012q0-3.73826-5.06055-3.73924a6.9281,6.9281,0,0,0-4.15772,1.0332,4.14761,4.14761,0,0,0-1.51806,3.2783h-3.74024Q163.6479,29.35425,172.8891,29.35327Zm-6.60059,17.16014a2.92737,2.92737,0,0,0,1.144,2.46386,5.23744,5.23744,0,0,0,3.25635.87989A7.99538,7.99538,0,0,0,175.683,48.362a4.39143,4.39143,0,0,0,1.958-3.56445v-3.916a5.97616,5.97616,0,0,1-2.64062.92383l-3.82715.57226a7.37734,7.37734,0,0,0-3.69678,1.3418,3.43544,3.43544,0,0,0-1.18793,2.794Z" style="fill:#386097"/><path d="M198.18793,29.35327q7.83252,0,7.832,8.1406V52.62962h-3.73926V37.09742a4.24943,4.24943,0,0,0-4.66406-4.44336,6.30885,6.30885,0,0,0-4.9502,1.93555,7.28557,7.28557,0,0,0-1.73828,5.05957V52.62965H187.1879v-22.748h3.5205V33.49h.08789A8.05645,8.05645,0,0,1,198.18793,29.35327Z" style="fill:#386097"/><path d="M222.04535,29.35327a9.57292,9.57292,0,0,1,7.65625,3.27832A12.87657,12.87657,0,0,1,232.517,41.322a12.5933,12.5933,0,0,1-2.83789,8.58008,9.51228,9.51228,0,0,1-7.5459,3.25586,10.4952,10.4952,0,0,1-4.13574-.8584,6.96611,6.96611,0,0,1-3.21192-2.70606h-.08789v11.748h-3.74023v-31.46h3.74023v3.08006h.08789Q216.5888,29.3538,222.04535,29.35327Zm-7.47949,11.87986a9.774,9.774,0,0,0,1.86914,6.293,6.407,6.407,0,0,0,5.30273,2.33106,5.99354,5.99354,0,0,0,5.03809-2.30957,10.4168,10.4168,0,0,0,1.78125-6.49024,9.26083,9.26083,0,0,0-1.91406-6.07129,6.33731,6.33731,0,0,0-5.16993-2.332A6.17155,6.17155,0,0,0,216.435,34.9412a9.66643,9.66643,0,0,0-1.86914,6.292Z" style="fill:#386097"/><path d="M246.19183,29.35327a10.38737,10.38737,0,0,1,8.07422,3.25683,13.94117,13.94117,0,0,1,0,17.20314,10.252,10.252,0,0,1-8.07422,3.34473,10.45312,10.45312,0,0,1-8.03027-3.23438,12.176,12.176,0,0,1-3.01367-8.6455,12.35043,12.35043,0,0,1,2.96972-8.69043A10.4211,10.4211,0,0,1,246.19183,29.35327Zm-7.084,11.92478a9.36651,9.36651,0,0,0,1.98047,6.20313,6.6663,6.6663,0,0,0,10.18554.02246,9.2812,9.2812,0,0,0,2.002-6.22559,9.46385,9.46385,0,0,0-1.97949-6.22656,6.36236,6.36236,0,0,0-5.14844-2.39746,6.269,6.269,0,0,0-5.03809,2.41992,9.4086,9.4086,0,0,0-2.002,6.20414Z" style="fill:#386097"/><path d="M262.603,29.88162l5.14843,18.61229h.08789l4.57618-18.61231h4.09179l4.7959,18.61231h.04395L286.4516,29.8816h3.87109l-7.21582,22.7041-.04394.04395h-3.96l-4.66407-18.084h-.044l-4.57618,18.084h-4.04785l-7.30371-22.748Z" style="fill:#386097"/><path d="M301.84711,29.35327a9.08353,9.08353,0,0,1,7.56738,3.47656,14.331,14.331,0,0,1,2.72852,9.1074v.44043H295.11468v.26368a7.24667,7.24667,0,0,0,1.89161,5.25781,6.8823,6.8823,0,0,0,5.19238,1.958q4.88379,0,5.89648-4.44336h3.69532a9.18734,9.18734,0,0,1-3.29981,5.78613,10.24284,10.24284,0,0,1-6.42383,1.958q-5.36865,0-8.13965-3.52051a13.36857,13.36857,0,0,1-2.77246-8.53613,12.028,12.028,0,0,1,3.03614-8.40332A9.89751,9.89751,0,0,1,301.84711,29.35327Zm6.33593,9.72459a6.89276,6.89276,0,0,0-2.002-4.59863,6.23677,6.23677,0,0,0-4.59863-1.8252,6.104,6.104,0,0,0-4.39942,1.73731,7.13678,7.13678,0,0,0-2.06836,4.68652Z" style="fill:#386097"/><path d="M327.93793,29.35327v3.96q-4.22462,0-6.22657,2.22266-2.00244,2.22216-2.002,6.92969V52.62968h-3.74023v-22.748h3.5205v4.79588h.0879q2.59569-5.32324,7.832-5.3242Z" style="fill:#386097"/></svg>